<svg xmlns="http://www.w3.org/2000/svg" preserveAspectRatio="xMidYMid meet" viewBox="107.9 3738.06 390.02 352.44">
  <g transform="translate(0,4120) scale(0.1,-0.1)" fill="black" stroke="none">
    <path d="M1282 3800 c-99 -44 -163 -123 -188 -229 -20 -83 -20 -2543 0 -2616 19 -73 55 -130 110 -175 57 -47 126 -70 212 -70 l62 0 4 -92 c2 -72 8 -104 26 -140 29 -59 86 -117 149 -155 l48 -28 1520 0 1520 0 44 24 c25 13 51 30 59 37 7 8 22 19 32 24 10 5 30 31 45 57 58 104 56 47 53 1440 l-3 1279 -34 67 c-58 114 -142 168 -276 177 l-80 5 -6 90 c-3 50 -9 99 -14 110 -21 53 -82 133 -120 158 -96 61 26 57 -1617 56 -1453 0 -1504 -1 -1546 -19z m216 -250 c61 -37 69 -105 18 -156 -27 -27 -42 -34 -74 -34 -33 0 -45 6 -71 35 -36 42 -39 76 -11 123 33 53 83 65 138 32z m348 -14 c53 -53 46 -129 -16 -161 -43 -22 -84 -19 -119 11 -52 43 -51 106 4 160 35 35 90 31 131 -10z m314 18 c67 -40 76 -120 19 -168 -68 -58 -169 -13 -169 74 0 34 6 48 34 76 38 38 72 43 116 18z m2220 -1455 c0 -1100 0 -1102 -21 -1135 -11 -19 -29 -39 -39 -44 -29 -16 -2941 -14 -2975 2 -15 7 -34 26 -43 42 -16 28 -17 122 -18 1126 -1 602 0 1098 3 1103 2 4 699 7 1549 7 l1544 0 0 -1101z m390 -364 l0 -1175 -29 -32 -29 -33 -1459 -3 c-802 -1 -1472 0 -1489 3 -22 4 -40 17 -58 43 -22 32 -26 49 -26 105 l0 67 1338 2 1337 3 40 22 c67 36 119 88 150 149 l30 59 3 983 2 982 95 0 95 0 0 -1175z"/>
    <path d="M2814 2816 l-34 -34 0 -286 0 -286 -289 0 c-286 0 -290 0 -316 -23 -39 -33 -45 -94 -12 -133 l25 -29 294 -5 293 -5 5 -292 5 -291 24 -26 c33 -35 98 -36 138 -2 l28 24 5 294 5 293 293 5 293 5 19 25 c30 39 26 95 -9 131 l-29 29 -286 0 -286 0 -1 273 c-1 149 -4 283 -8 297 -8 30 -65 70 -98 70 -15 0 -39 -14 -59 -34z"/>
  </g>
</svg>